<svg width="800" height="800" viewBox="0 0 800 800" fill="none" xmlns="http://www.w3.org/2000/svg">
<g clip-path="url(#clip0_2_3)">
<path d="M304.519 686C357.225 686 400 643.216 400 590.5V495H304.519C251.814 495 209.038 537.784 209.038 590.5C209.038 643.216 251.814 686 304.519 686Z" fill="#0ACF83"/>
<path d="M209.038 399.5C209.038 346.784 251.814 304 304.519 304H400V495H304.519C251.814 495 209.038 452.216 209.038 399.5Z" fill="#A259FF"/>
<path d="M209.038 208.5C209.038 155.784 251.814 113 304.519 113H400V304H304.519C251.814 304 209.038 261.216 209.038 208.5Z" fill="#F24E1E"/>
<path d="M400 113H495.481C548.186 113 590.962 155.784 590.962 208.5C590.962 261.216 548.186 304 495.481 304H400V113Z" fill="#FF7262"/>
<path d="M590.962 399.5C590.962 452.216 548.186 495 495.481 495C442.775 495 400 452.216 400 399.5C400 346.784 442.775 304 495.481 304C548.186 304 590.962 346.784 590.962 399.5Z" fill="#1ABCFE"/>
</g>
<defs>
<clipPath id="clip0_2_3">
<rect width="382" height="573" fill="white" transform="translate(209 113)"/>
</clipPath>
</defs>
</svg>
