<svg width="726" height="750" viewBox="0 0 726 750" fill="none" xmlns="http://www.w3.org/2000/svg">
<path d="M373.8 349.079C387.2 350.979 400 351.979 412 351.979C459.7 351.979 510.7 333.979 510.7 283.479C510.7 245.079 481.1 214.979 443.2 214.979C402.3 214.979 373.7 250.579 373.7 301.579V349.079H373.8ZM252.7 683.179H279.8C294.8 683.179 307 670.979 307 655.979V402.679C280.4 395.179 252.9 385.179 225.6 372.779V655.979C225.5 670.979 237.7 683.179 252.7 683.179ZM303.5 749.979H228.9C190.1 749.979 158.6 718.479 158.6 679.679V337.679C96.8 300.179 39.8 250.979 0 192.379L55.3 154.779C82.1 194.179 118.8 229.279 159.8 258.479C173.2 105.079 309.5 -13.7207 469.4 1.27925C606.2 14.0793 715.3 125.779 725.1 262.879C737 428.479 605.5 567.179 442.2 567.179V500.379C569.9 500.379 672.1 389.379 657.6 258.879C646.5 159.379 566.5 79.2792 467 68.1792C336.4 53.5792 225.5 155.879 225.5 283.579V298.779C252.5 312.879 280.1 324.379 306.9 333.179V301.779C306.9 212.879 364.2 148.279 443.2 148.279C517.3 148.279 577.5 208.979 577.5 283.579C577.5 364.479 511 418.879 411.9 418.879C399.8 418.879 387 418.079 373.7 416.479V679.779C373.8 718.479 342.3 749.979 303.5 749.979Z" fill="#FF5C0B"/>
</svg>
