<svg width="800" height="800" viewBox="0 0 800 800" fill="none" xmlns="http://www.w3.org/2000/svg">
<path d="M376.816 379.914C387.062 381.367 396.849 382.131 406.024 382.131C442.497 382.131 481.493 368.368 481.493 329.755C481.493 300.393 458.86 277.378 429.881 277.378C398.607 277.378 376.739 304.598 376.739 343.594V379.914H376.816ZM284.22 635.374H304.941C316.411 635.374 325.739 626.046 325.739 614.576V420.897C305.4 415.163 284.373 407.517 263.499 398.035V614.576C263.422 626.046 272.751 635.374 284.22 635.374ZM323.063 686.451H266.022C236.355 686.451 212.269 662.365 212.269 632.698V371.197C165.015 342.524 121.432 304.904 91 260.097L133.284 231.348C153.775 261.474 181.837 288.312 213.187 310.639C223.433 193.346 327.651 102.509 449.914 113.978C554.514 123.765 637.934 209.174 645.427 314.003C654.526 440.625 553.979 546.678 429.116 546.678V495.601C526.758 495.601 604.902 410.728 593.815 310.945C585.328 234.865 524.158 173.619 448.079 165.131C348.219 153.968 263.422 232.189 263.422 329.831V341.453C284.067 352.234 305.171 361.028 325.663 367.756V343.747C325.663 275.772 369.475 226.378 429.881 226.378C486.539 226.378 532.569 272.79 532.569 329.831C532.569 391.689 481.722 433.284 405.948 433.284C396.696 433.284 386.909 432.673 376.739 431.449V632.774C376.816 662.365 352.73 686.451 323.063 686.451Z" fill="#FF5C0B"/>
</svg>
